<svg aria-hidden="true" style="width:0;height:0;position:absolute;overflow:hidden" xmlns="http://www.w3.org/2000/svg"><defs><symbol id="icon-collegiate" viewBox="0 0 32 32"><path d="M13.864 26.873h4.282v4.395h-4.282v-4.395zM23.595 15.89v15.378h7.201V15.89h-7.201zm4.337 13.183c0 .46-.349.833-.779.833s-.778-.373-.778-.833v-3.408c0-.46.349-.833.778-.833s.779.373.779.833v3.408zm0-7.575c0 .46-.349.833-.779.833s-.778-.373-.778-.833v-3.412c0-.46.349-.833.778-.833s.779.373.779.833v3.412zM1.214 31.268h7.201V15.89H1.214v15.378zm2.865-13.182c0-.46.349-.833.779-.833s.778.373.778.833v3.412c0 .46-.349.833-.778.833s-.779-.373-.779-.833v-3.412zm0 7.578c0-.46.349-.833.779-.833s.778.373.778.833v3.408c0 .46-.349.833-.778.833s-.779-.373-.779-.833v-3.408z"/><path d="M16.005.02 7.959 9.678h1.234c.206 0 .405.088.55.244s.228.368.228.589v4.166a.884.884 0 0 1 .09.379v16.212h2.246v-5.229c0-.46.348-.833.778-.833h5.839c.206 0 .405.088.55.244s.228.368.228.589v5.229h2.246V15.056a.87.87 0 0 1 .09-.379v-4.166c0-.46.348-.833.778-.833h1.234L16.004.02zm-1.876 22.611c0 .46-.349.833-.778.833s-.778-.373-.778-.833v-3.408c0-.46.348-.833.778-.833s.778.373.778.833v3.408zm0-7.575c0 .46-.349.834-.778.834s-.778-.373-.778-.834v-3.408c0-.46.348-.834.778-.834s.778.373.778.834v3.408zm5.309 7.575c0 .46-.348.833-.778.833s-.778-.373-.778-.833v-3.408c0-.46.349-.833.778-.833s.778.373.778.833v3.408zm0-7.575c0 .46-.348.834-.778.834s-.778-.373-.778-.834v-3.408c0-.46.349-.834.778-.834s.778.373.778.834v3.408z"/></symbol><symbol id="icon-univer" viewBox="0 0 26 32"><path d="M19.183 9.832V4.927h1.573L13.09.021 5.424 4.927h1.573v4.906H.412V31.27h9.19v-9.813h6.977v9.812h9.19V9.832l-6.585.001zM5.092 12.498h1.843v1.999H5.092v-1.999zm-3.538 0h1.843v1.999H1.554v-1.999zm0 3.199h1.843v1.999H1.554v-1.999zm2.543 12.878H1.959v-2.32h2.138v2.32zm0-4.4H1.959v-2.319h2.138v2.319zm.995-8.478h1.843v1.999H5.092v-1.999zm2.985 12.877H5.939v-2.32h2.138v2.32zm0-4.399H5.939v-2.319h2.138v2.319zm2.396-6.479H8.63v-1.999h1.843v1.999zm0-3.199H8.63v-2h1.843v2zm3.538 3.199h-1.843v-1.999h1.843v1.999zm0-3.199h-1.843v-2h1.843v2zm-.921-6.239c-.977 0-1.769-.859-1.769-1.92s.792-1.919 1.769-1.919c.977 0 1.769.859 1.769 1.919s-.793 1.92-1.769 1.92zm4.459 9.438h-1.843v-1.999h1.843v1.999zm0-3.199h-1.843v-1.999h1.843v1.999zm2.691 14.077h-2.137v-2.32h2.137v2.32zm0-4.4h-2.137v-2.319h2.137v2.319zm.848-6.478h-1.843v-1.999h1.843v1.999zm0-3.199h-1.843v-1.999h1.843v1.999zm3.132 14.077h-2.138v-2.32h2.138v2.32zm0-4.4h-2.138v-2.319h2.138v2.319zm.406-6.478h-1.843v-1.999h1.843v1.999zm0-3.199h-1.843v-1.999h1.843v1.999z"/></symbol><symbol id="icon-pace" viewBox="0 0 42 32"><path d="M.34.894h40.129v30.278H.34V.894z"/></symbol></defs></svg>